<svg width="71" height="70" viewBox="0 0 71 70" fill="none" xmlns="http://www.w3.org/2000/svg">
<path id="Vector" d="M29.8073 40.7812C29.8073 43.7969 27.6198 44.75 24.9323 44.75H17.8854V36.4844H25.0729C27.9792 36.5 29.8073 37.7031 29.8073 40.7812ZM28.6042 27.9219C28.6042 25.1562 26.4636 24.5 24.0886 24.5H17.9011V31.5H24.5729C26.9323 31.5 28.6042 30.4688 28.6042 27.9219ZM49.2761 31.5469C46.4167 31.5469 44.5104 33.3281 44.3229 36.1875H54.0417C53.7761 33.2969 52.2761 31.5469 49.2761 31.5469ZM70.6667 7.5V62.5C70.6667 66.6406 67.3073 70 63.1667 70H8.16669C4.02606 70 0.666687 66.6406 0.666687 62.5V7.5C0.666687 3.35938 4.02606 0 8.16669 0H63.1667C67.3073 0 70.6667 3.35938 70.6667 7.5ZM43.1198 23.9062H55.2761V20.9531H43.1198V23.9062ZM36.4011 41.1406C36.4011 37.375 34.6198 34.125 30.9323 33.0781C33.6198 31.7969 35.0261 30.3125 35.0261 27.2969C35.0261 21.3281 30.5729 19.875 25.4323 19.875H11.2917V49.875H25.8386C31.2917 49.8438 36.4011 47.2344 36.4011 41.1406ZM60.0417 38.8281C60.0417 32.4062 56.2761 27.0469 49.4792 27.0469C42.8542 27.0469 38.3698 32.0156 38.3698 38.5469C38.3698 45.3125 42.6354 49.9531 49.4792 49.9531C54.6667 49.9531 58.0261 47.625 59.6511 42.6406H54.3854C53.8073 44.5 51.4792 45.4688 49.6667 45.4688C46.1667 45.4688 44.3386 43.4219 44.3386 39.9531H59.9948C60.0104 39.5938 60.0417 39.2031 60.0417 38.8281Z" fill="#1833EF"/>
</svg>
