<svg width="71" height="70" viewBox="0 0 71 70" fill="none" xmlns="http://www.w3.org/2000/svg">
<path id="Vector" d="M35.6745 17.0529C25.7425 17.0529 17.7314 25.0658 17.7314 35C17.7314 44.9342 25.7425 52.9471 35.6745 52.9471C45.6065 52.9471 53.6176 44.9342 53.6176 35C53.6176 25.0658 45.6065 17.0529 35.6745 17.0529ZM35.6745 46.668C29.2562 46.668 24.0091 41.4353 24.0091 35C24.0091 28.5647 29.2406 23.332 35.6745 23.332C42.1084 23.332 47.3399 28.5647 47.3399 35C47.3399 41.4353 42.0928 46.668 35.6745 46.668ZM58.5367 16.3188C58.5367 18.6461 56.6628 20.5049 54.3516 20.5049C52.0247 20.5049 50.1664 18.6305 50.1664 16.3188C50.1664 14.007 52.0404 12.1327 54.3516 12.1327C56.6628 12.1327 58.5367 14.007 58.5367 16.3188ZM70.4207 20.5673C70.1553 14.9598 68.8747 9.99275 64.7676 5.90037C60.6762 1.80799 55.7102 0.527167 50.1039 0.246011C44.3259 -0.0820038 27.0075 -0.0820038 21.2294 0.246011C15.6388 0.511547 10.6728 1.79237 6.56574 5.88475C2.45866 9.97713 1.19374 14.9442 0.912644 20.5517C0.584702 26.331 0.584702 43.6533 0.912644 49.4327C1.17812 55.0402 2.45866 60.0073 6.56574 64.0996C10.6728 68.192 15.6232 69.4728 21.2294 69.754C27.0075 70.082 44.3259 70.082 50.1039 69.754C55.7102 69.4884 60.6762 68.2076 64.7676 64.0996C68.8591 60.0073 70.1396 55.0402 70.4207 49.4327C70.7487 43.6533 70.7487 26.3466 70.4207 20.5673ZM62.9561 55.6337C61.7381 58.6952 59.38 61.0538 56.3036 62.2877C51.6968 64.1152 40.7654 63.6935 35.6745 63.6935C30.5836 63.6935 19.6366 64.0996 15.0454 62.2877C11.9846 61.0694 9.62653 58.7108 8.39284 55.6337C6.56574 51.0259 6.98738 40.092 6.98738 35C6.98738 29.908 6.58136 18.9585 8.39284 14.3663C9.61092 11.3048 11.969 8.94622 15.0454 7.71226C19.6522 5.88475 30.5836 6.30648 35.6745 6.30648C40.7654 6.30648 51.7124 5.90037 56.3036 7.71226C59.3644 8.9306 61.7225 11.2892 62.9561 14.3663C64.7832 18.9741 64.3616 29.908 64.3616 35C64.3616 40.092 64.7832 51.0415 62.9561 55.6337Z" fill="url(#paint0_linear_51_28)"/>
<defs>
<linearGradient id="paint0_linear_51_28" x1="35.6667" y1="0" x2="35.6667" y2="70" gradientUnits="userSpaceOnUse">
<stop stop-color="#9681EB"/>
<stop offset="0.255208" stop-color="#F24C3D"/>
<stop offset="0.505208" stop-color="#E966A0"/>
<stop offset="0.760417" stop-color="#FFD93D"/>
<stop offset="1" stop-color="#E966A0"/>
</linearGradient>
</defs>
</svg>
