<svg width="71" height="70" viewBox="0 0 71 70" fill="none" xmlns="http://www.w3.org/2000/svg">
<path id="Vector" d="M70.6667 35C70.6667 54.3347 55.0014 70 35.6667 70C32.0538 70 28.582 69.4496 25.3078 68.4335C26.7332 66.1048 28.8643 62.2944 29.6546 59.2601C30.078 57.623 31.828 50.9335 31.828 50.9335C32.9711 53.1069 36.3018 54.9556 39.8441 54.9556C50.4005 54.9556 58.0074 45.246 58.0074 33.1794C58.0074 21.621 48.5659 12.9698 36.4288 12.9698C21.328 12.9698 13.2977 23.1028 13.2977 34.1532C13.2977 39.2903 16.0356 45.6835 20.3965 47.7157C21.0598 48.0262 21.4126 47.8851 21.5679 47.25C21.6808 46.7702 22.2735 44.3851 22.5417 43.2843C22.6263 42.9315 22.584 42.621 22.3018 42.2823C20.8764 40.5181 19.7191 37.3004 19.7191 34.2944C19.7191 26.5746 25.5618 19.1089 35.5255 19.1089C44.1203 19.1089 50.1465 24.9657 50.1465 33.3488C50.1465 42.8186 45.3622 49.381 39.1384 49.381C35.709 49.381 33.1263 46.5444 33.959 43.0585C34.9469 38.8952 36.8522 34.4073 36.8522 31.4012C36.8522 28.7198 35.4126 26.4758 32.4207 26.4758C28.9066 26.4758 26.084 30.1028 26.084 34.9718C26.084 38.0766 27.1284 40.1653 27.1284 40.1653C27.1284 40.1653 23.6707 54.8145 23.0356 57.5524C22.33 60.5726 22.6122 64.8347 22.9086 67.6008C9.89651 62.5061 0.666672 49.8327 0.666672 35C0.666672 15.6653 16.332 0 35.6667 0C55.0014 0 70.6667 15.6653 70.6667 35Z" fill="#FF6666"/>
</svg>
