<svg width="16" height="26" viewBox="0 0 16 26" fill="none" xmlns="http://www.w3.org/2000/svg">
<path d="M13.2812 0.5H2.34375C1.0498 0.5 0 1.5498 0 2.84375V23.1562C0 24.4502 1.0498 25.5 2.34375 25.5H13.2812C14.5752 25.5 15.625 24.4502 15.625 23.1562V2.84375C15.625 1.5498 14.5752 0.5 13.2812 0.5ZM7.8125 23.9375C6.94824 23.9375 6.25 23.2393 6.25 22.375C6.25 21.5107 6.94824 20.8125 7.8125 20.8125C8.67676 20.8125 9.375 21.5107 9.375 22.375C9.375 23.2393 8.67676 23.9375 7.8125 23.9375ZM13.2812 18.6641C13.2812 18.9863 13.0176 19.25 12.6953 19.25H2.92969C2.60742 19.25 2.34375 18.9863 2.34375 18.6641V3.42969C2.34375 3.10742 2.60742 2.84375 2.92969 2.84375H12.6953C13.0176 2.84375 13.2812 3.10742 13.2812 3.42969V18.6641Z" fill="url(#paint0_linear_1_48)"/>
<defs>
<linearGradient id="paint0_linear_1_48" x1="0" y1="13" x2="16.2157" y2="13" gradientUnits="userSpaceOnUse">
<stop stop-color="#9747FF"/>
<stop offset="0.364583" stop-color="#9747FF"/>
<stop offset="0.713542" stop-color="#CF56D2"/>
<stop offset="1" stop-color="#E966A0"/>
</linearGradient>
</defs>
</svg>
