<svg width="26" height="20" viewBox="0 0 26 20" fill="none" xmlns="http://www.w3.org/2000/svg">
<path d="M22.5 0.625H3.75C2.9212 0.625 2.12634 0.95424 1.54029 1.54029C0.95424 2.12634 0.625 2.9212 0.625 3.75L0.625 16.25C0.625 17.0788 0.95424 17.8737 1.54029 18.4597C2.12634 19.0458 2.9212 19.375 3.75 19.375H22.5C23.3288 19.375 24.1237 19.0458 24.7097 18.4597C25.2958 17.8737 25.625 17.0788 25.625 16.25V3.75C25.625 2.9212 25.2958 2.12634 24.7097 1.54029C24.1237 0.95424 23.3288 0.625 22.5 0.625ZM8.4375 15.4688H4.53125C4.32405 15.4688 4.12534 15.3864 3.97882 15.2399C3.83231 15.0934 3.75 14.8947 3.75 14.6875V13.9062C3.75 13.699 3.83231 13.5003 3.97882 13.3538C4.12534 13.2073 4.32405 13.125 4.53125 13.125H8.4375V15.4688ZM14.6875 14.6875C14.6875 14.8947 14.6052 15.0934 14.4587 15.2399C14.3122 15.3864 14.1135 15.4688 13.9062 15.4688H10V13.125H13.9062C14.1135 13.125 14.3122 13.2073 14.4587 13.3538C14.6052 13.5003 14.6875 13.699 14.6875 13.9062V14.6875ZM22.5 8.4375C22.5 8.8519 22.3354 9.24933 22.0424 9.54235C21.7493 9.83538 21.3519 10 20.9375 10H5.3125C4.8981 10 4.50067 9.83538 4.20765 9.54235C3.91462 9.24933 3.75 8.8519 3.75 8.4375V5.3125C3.75 4.8981 3.91462 4.50067 4.20765 4.20765C4.50067 3.91462 4.8981 3.75 5.3125 3.75H20.9375C21.3519 3.75 21.7493 3.91462 22.0424 4.20765C22.3354 4.50067 22.5 4.8981 22.5 5.3125V8.4375Z" fill="white"/>
</svg>
