<svg width="31" height="31" viewBox="0 0 31 31" fill="none" xmlns="http://www.w3.org/2000/svg">
<g id="Vector" opacity="0.5" filter="url(#filter0_i_1_128)">
<path d="M13.0887 2.21488L14.5935 0.67219C15.2307 0.0189763 16.2732 0.0068404 16.9185 0.645123L30.4069 13.8368C31.0591 14.475 31.0713 15.5192 30.434 16.1655L17.2565 29.6745C16.6193 30.3277 15.5768 30.3399 14.9314 29.7016L13.3911 28.1943C12.7319 27.5494 12.7333 26.4845 13.3911 25.8379L21.5638 17.8558L1.85242 18.0852C0.940234 18.0959 0.197815 17.3694 0.18718 16.4558L0.161591 14.2576C0.150955 13.344 0.876261 12.6005 1.78844 12.5899L21.4998 12.3604L13.1435 4.57072C12.464 3.9397 12.4378 2.87513 13.0887 2.21488Z" fill="#FF00FF"/>
</g>
<defs>
<filter id="filter0_i_1_128" x="0.161499" y="0.174232" width="30.7426" height="33.9983" filterUnits="userSpaceOnUse" color-interpolation-filters="sRGB">
<feFlood flood-opacity="0" result="BackgroundImageFix"/>
<feBlend mode="normal" in="SourceGraphic" in2="BackgroundImageFix" result="shape"/>
<feColorMatrix in="SourceAlpha" type="matrix" values="0 0 0 0 0 0 0 0 0 0 0 0 0 0 0 0 0 0 127 0" result="hardAlpha"/>
<feOffset dy="4"/>
<feGaussianBlur stdDeviation="2"/>
<feComposite in2="hardAlpha" operator="arithmetic" k2="-1" k3="1"/>
<feColorMatrix type="matrix" values="0 0 0 0 0 0 0 0 0 0 0 0 0 0 0 0 0 0 0.25 0"/>
<feBlend mode="normal" in2="shape" result="effect1_innerShadow_1_128"/>
</filter>
</defs>
</svg>
