<svg width="52" height="50" viewBox="0 0 52 50" fill="none" xmlns="http://www.w3.org/2000/svg">
<g id="Vector" opacity="0.5" filter="url(#filter0_i_109_61)">
<path d="M29.4422 46.651L26.9044 49.1928C25.8298 50.2691 24.0922 50.2691 23.0291 49.1928L0.805931 26.9464C-0.268644 25.8702 -0.268644 24.1298 0.805931 23.065L23.0291 0.80719C24.1036 -0.269063 25.8412 -0.269063 26.9044 0.80719L29.4422 3.34898C30.5282 4.43668 30.5054 6.21136 29.3965 7.27616L15.6214 20.4202H48.4759C49.9963 20.4202 51.2195 21.6453 51.2195 23.1681V26.8319C51.2195 28.3547 49.9963 29.5798 48.4759 29.5798H15.6214L29.3965 42.7238C30.5168 43.7886 30.5397 45.5633 29.4422 46.651Z" fill="#FF00FF"/>
</g>
<defs>
<filter id="filter0_i_109_61" x="0" y="0" width="51.2195" height="54" filterUnits="userSpaceOnUse" color-interpolation-filters="sRGB">
<feFlood flood-opacity="0" result="BackgroundImageFix"/>
<feBlend mode="normal" in="SourceGraphic" in2="BackgroundImageFix" result="shape"/>
<feColorMatrix in="SourceAlpha" type="matrix" values="0 0 0 0 0 0 0 0 0 0 0 0 0 0 0 0 0 0 127 0" result="hardAlpha"/>
<feOffset dy="4"/>
<feGaussianBlur stdDeviation="2"/>
<feComposite in2="hardAlpha" operator="arithmetic" k2="-1" k3="1"/>
<feColorMatrix type="matrix" values="0 0 0 0 0 0 0 0 0 0 0 0 0 0 0 0 0 0 0.25 0"/>
<feBlend mode="normal" in2="shape" result="effect1_innerShadow_109_61"/>
</filter>
</defs>
</svg>
