<svg width="47" height="70" viewBox="0 0 47 70" fill="none" xmlns="http://www.w3.org/2000/svg">
<path id="Vector" d="M35.0017 23.3379C38.0954 23.3379 41.0625 22.1085 43.2501 19.9201C45.4377 17.7318 46.6667 14.7637 46.6667 11.6689C46.6667 8.57415 45.4377 5.60611 43.2501 3.41775C41.0625 1.2294 38.0954 0 35.0017 0L11.6718 0C8.57987 0 5.61458 1.22868 3.42826 3.41575C1.24193 5.60282 0.0136704 8.56912 0.0136704 11.6621C0.0136704 14.7551 1.24193 17.7214 3.42826 19.9085C5.61458 22.0955 8.57987 23.3242 11.6718 23.3242C8.57806 23.3242 5.61103 24.5536 3.42342 26.742C1.23582 28.9303 0.00683688 31.8984 0.00683688 34.9932C0.00683688 38.088 1.23582 41.056 3.42342 43.2444C5.61103 45.4327 8.57806 46.6621 11.6718 46.6621C9.36468 46.6608 7.10898 47.3438 5.18994 48.6249C3.2709 49.906 1.77471 51.7275 0.890564 53.8592C0.00642258 55.9909 -0.225956 58.337 0.222813 60.6008C0.671582 62.8647 1.78134 64.9445 3.41176 66.5774C5.04218 68.2103 7.12002 69.3229 9.38254 69.7744C11.6451 70.226 13.9906 69.9963 16.1226 69.1144C18.2546 68.2324 20.0773 66.7378 21.3602 64.8196C22.6431 62.9015 23.3286 60.6458 23.3299 58.3379V23.3379H35.0017ZM35.0017 23.3379C32.6959 23.3379 30.442 24.0219 28.5248 25.3033C26.6076 26.5848 25.1134 28.4061 24.231 30.5371C23.3486 32.6681 23.1178 35.0129 23.5676 37.2752C24.0174 39.5374 25.1278 41.6154 26.7582 43.2464C28.3886 44.8773 30.4659 45.988 32.7273 46.438C34.9888 46.888 37.3328 46.6571 39.4631 45.7744C41.5933 44.8917 43.4141 43.3969 44.6951 41.4791C45.9761 39.5613 46.6598 37.3065 46.6598 35C46.6595 31.9071 45.4311 28.941 43.2449 26.754C41.0586 24.567 38.0935 23.3383 35.0017 23.3379Z" fill="#F24C3D"/>
</svg>
