<svg width="26" height="24" viewBox="0 0 26 24" fill="none" xmlns="http://www.w3.org/2000/svg">
<path d="M23.5417 0.888916H2.70833C1.55816 0.888916 0.625 1.82208 0.625 2.97225V16.8611C0.625 18.0113 1.55816 18.9445 2.70833 18.9445H11.0417L10.3472 21.0278H7.22222C6.64497 21.0278 6.18056 21.4922 6.18056 22.0695C6.18056 22.6467 6.64497 23.1111 7.22222 23.1111H19.0278C19.605 23.1111 20.0694 22.6467 20.0694 22.0695C20.0694 21.4922 19.605 21.0278 19.0278 21.0278H15.9028L15.2083 18.9445H23.5417C24.6918 18.9445 25.625 18.0113 25.625 16.8611V2.97225C25.625 1.82208 24.6918 0.888916 23.5417 0.888916ZM22.8472 16.1667H3.40278V3.66669H22.8472V16.1667Z" fill="#D9D9D9"/>
</svg>
